<svg width="14" height="20" viewBox="0 0 14 20" fill="none" xmlns="http://www.w3.org/2000/svg">
<path d="M6.16665 14.7419C4.48557 14.5179 2.94902 13.6319 1.8693 12.2641C0.789582 10.8964 0.247713 9.14934 0.35383 7.37819C0.459948 5.60703 1.20609 3.94465 2.4406 2.72891C3.67511 1.51318 5.30535 0.835324 6.99998 0.833124C8.69668 0.831801 10.33 1.508 11.5672 2.72394C12.8044 3.93987 13.5523 5.60405 13.6585 7.37737C13.7648 9.15069 13.2214 10.8997 12.139 12.2681C11.0567 13.6364 9.51686 14.5211 7.83331 14.7419V16.5518C11.1216 16.6321 13.6666 17.1827 13.6666 17.8503C13.6666 18.5729 10.6816 19.1594 6.99998 19.1594C3.31831 19.1594 0.333313 18.5729 0.333313 17.8503C0.333313 17.1827 2.87831 16.6321 6.16665 16.5518V14.7419ZM6.99998 13.0506C8.32606 13.0506 9.59783 12.499 10.5355 11.517C11.4732 10.5351 12 9.20324 12 7.81455C12 6.42586 11.4732 5.09404 10.5355 4.11209C9.59783 3.13014 8.32606 2.57848 6.99998 2.57848C5.6739 2.57848 4.40213 3.13014 3.46445 4.11209C2.52676 5.09404 1.99998 6.42586 1.99998 7.81455C1.99998 9.20324 2.52676 10.5351 3.46445 11.517C4.40213 12.499 5.6739 13.0506 6.99998 13.0506ZM6.99998 9.55991C6.55795 9.55991 6.13403 9.37602 5.82147 9.0487C5.50891 8.72138 5.33331 8.27745 5.33331 7.81455C5.33331 7.35165 5.50891 6.90771 5.82147 6.5804C6.13403 6.25308 6.55795 6.06919 6.99998 6.06919C7.44201 6.06919 7.86593 6.25308 8.17849 6.5804C8.49105 6.90771 8.66665 7.35165 8.66665 7.81455C8.66665 8.27745 8.49105 8.72138 8.17849 9.0487C7.86593 9.37602 7.44201 9.55991 6.99998 9.55991Z" fill="#E82223"/>
</svg>
